<svg xmlns="http://www.w3.org/2000/svg" width="192" height="192" viewBox="0 0 192 192" role="img" aria-label="Open Vibe Coding">
  <defs>
    <linearGradient id="bg" x1="18" x2="174" y1="18" y2="174" gradientUnits="userSpaceOnUse">
      <stop offset="0" stop-color="#FFFFFF"/>
      <stop offset="1" stop-color="#F8FAFC"/>
    </linearGradient>
    <linearGradient id="star" x1="78" x2="116" y1="42" y2="150" gradientUnits="userSpaceOnUse">
      <stop offset="0" stop-color="#FFD94D"/>
      <stop offset=".55" stop-color="#FFB938"/>
      <stop offset="1" stop-color="#FF6B57"/>
    </linearGradient>
    <linearGradient id="left" x1="28" x2="72" y1="74" y2="122" gradientUnits="userSpaceOnUse">
      <stop offset="0" stop-color="#65C7FF"/>
      <stop offset="1" stop-color="#3C8BFF"/>
    </linearGradient>
    <linearGradient id="right" x1="120" x2="164" y1="74" y2="122" gradientUnits="userSpaceOnUse">
      <stop offset="0" stop-color="#75F0B9"/>
      <stop offset="1" stop-color="#22C7A9"/>
    </linearGradient>
    <filter id="shadow" x="-12%" y="-12%" width="124%" height="124%" color-interpolation-filters="sRGB">
      <feDropShadow dx="0" dy="8" stdDeviation="10" flood-color="#0F172A" flood-opacity=".10"/>
    </filter>
  </defs>
  <rect width="192" height="192" rx="44" fill="url(#bg)"/>
  <g filter="url(#shadow)">
    <path d="M49 76 28 97l21 21" fill="none" stroke="url(#left)" stroke-width="17" stroke-linecap="round" stroke-linejoin="round"/>
    <path d="M143 76 164 97l-21 21" fill="none" stroke="url(#right)" stroke-width="17" stroke-linecap="round" stroke-linejoin="round"/>
    <path fill="url(#star)" d="M96 39c6 0 10 18 15 27 5 10 28 11 30 18s-16 19-21 29c-5 9-2 32-8 36s-17-12-27-15c-10-2-29 10-34 5s6-24 4-34c-3-10-22-23-19-30s25-8 33-15c8-6 18-21 27-21Z"/>
    <circle cx="77" cy="91" r="5.5" fill="#10233F"/>
    <circle cx="115" cy="91" r="5.5" fill="#10233F"/>
    <path d="M86 108c5 8 15 8 20 0" fill="none" stroke="#10233F" stroke-width="5" stroke-linecap="round"/>
    <circle cx="63" cy="103" r="6" fill="#FF7A67" opacity=".78"/>
    <circle cx="129" cy="103" r="6" fill="#FF7A67" opacity=".78"/>
    <path d="M64 45c2 9 5 12 14 14-9 2-12 5-14 14-2-9-5-12-14-14 9-2 12-5 14-14Z" fill="#45B8FF"/>
    <path d="M128 38c1.5 7 4 9.5 11 11-7 1.5-9.5 4-11 11-1.5-7-4-9.5-11-11 7-1.5 9.5-4 11-11Z" fill="#FF6B57"/>
    <circle cx="94" cy="158" r="5" fill="#42DCA3"/>
  </g>
</svg>
